<mxfile host="Electron" agent="Mozilla/5.0 (Windows NT 10.0; Win64; x64) AppleWebKit/537.36 (KHTML, like Gecko) draw.io/26.0.16 Chrome/132.0.6834.196 Electron/34.2.0 Safari/537.36" version="26.0.16">
  <diagram name="Страница — 1" id="eGaFwrD_WAsBf7NDzoaS">
    <mxGraphModel dx="1050" dy="629" grid="1" gridSize="10" guides="1" tooltips="1" connect="1" arrows="1" fold="1" page="1" pageScale="1" pageWidth="827" pageHeight="1169" math="0" shadow="0">
      <root>
        <mxCell id="0" />
        <mxCell id="1" parent="0" />
        <mxCell id="tjVxPv9A50ptuYDxmKrU-5" value="" style="edgeStyle=orthogonalEdgeStyle;rounded=0;orthogonalLoop=1;jettySize=auto;html=1;endArrow=none;endFill=0;" parent="1" source="tjVxPv9A50ptuYDxmKrU-3" edge="1">
          <mxGeometry relative="1" as="geometry">
            <mxPoint x="320" y="200" as="targetPoint" />
          </mxGeometry>
        </mxCell>
        <mxCell id="tjVxPv9A50ptuYDxmKrU-3" value="&lt;font style=&quot;font-size: 18px;&quot;&gt;Начало&lt;/font&gt;" style="rounded=1;whiteSpace=wrap;html=1;absoluteArcSize=1;arcSize=72;strokeWidth=2;" parent="1" vertex="1">
          <mxGeometry x="220" y="120" width="200" height="40" as="geometry" />
        </mxCell>
        <mxCell id="tjVxPv9A50ptuYDxmKrU-15" value="" style="edgeStyle=orthogonalEdgeStyle;rounded=0;orthogonalLoop=1;jettySize=auto;html=1;endArrow=none;endFill=0;" parent="1" source="tjVxPv9A50ptuYDxmKrU-10" target="tjVxPv9A50ptuYDxmKrU-12" edge="1">
          <mxGeometry relative="1" as="geometry" />
        </mxCell>
        <mxCell id="tjVxPv9A50ptuYDxmKrU-10" value="&lt;font style=&quot;font-size: 18px;&quot;&gt;Вычисление ошибки&lt;/font&gt;" style="rounded=0;whiteSpace=wrap;html=1;absoluteArcSize=1;arcSize=14;strokeWidth=2;" parent="1" vertex="1">
          <mxGeometry x="220" y="190" width="200" height="80" as="geometry" />
        </mxCell>
        <mxCell id="tjVxPv9A50ptuYDxmKrU-16" value="" style="edgeStyle=orthogonalEdgeStyle;rounded=0;orthogonalLoop=1;jettySize=auto;html=1;endArrow=none;endFill=0;" parent="1" source="tjVxPv9A50ptuYDxmKrU-12" target="tjVxPv9A50ptuYDxmKrU-13" edge="1">
          <mxGeometry relative="1" as="geometry" />
        </mxCell>
        <mxCell id="tjVxPv9A50ptuYDxmKrU-12" value="&lt;font style=&quot;font-size: 18px;&quot;&gt;Построение матрицы Якоби&lt;/font&gt;" style="rounded=0;whiteSpace=wrap;html=1;absoluteArcSize=1;arcSize=14;strokeWidth=2;" parent="1" vertex="1">
          <mxGeometry x="220" y="300" width="200" height="80" as="geometry" />
        </mxCell>
        <mxCell id="tjVxPv9A50ptuYDxmKrU-17" value="" style="edgeStyle=orthogonalEdgeStyle;rounded=0;orthogonalLoop=1;jettySize=auto;html=1;endArrow=none;endFill=0;" parent="1" source="tjVxPv9A50ptuYDxmKrU-13" target="tjVxPv9A50ptuYDxmKrU-14" edge="1">
          <mxGeometry relative="1" as="geometry" />
        </mxCell>
        <mxCell id="tjVxPv9A50ptuYDxmKrU-13" value="&lt;font style=&quot;font-size: 18px;&quot;&gt;Обратное преобразование&lt;/font&gt;" style="rounded=0;whiteSpace=wrap;html=1;absoluteArcSize=1;arcSize=14;strokeWidth=2;" parent="1" vertex="1">
          <mxGeometry x="220" y="410" width="200" height="80" as="geometry" />
        </mxCell>
        <mxCell id="tjVxPv9A50ptuYDxmKrU-19" value="" style="edgeStyle=orthogonalEdgeStyle;rounded=0;orthogonalLoop=1;jettySize=auto;html=1;endArrow=none;endFill=0;" parent="1" source="tjVxPv9A50ptuYDxmKrU-14" target="tjVxPv9A50ptuYDxmKrU-18" edge="1">
          <mxGeometry relative="1" as="geometry" />
        </mxCell>
        <mxCell id="tjVxPv9A50ptuYDxmKrU-14" value="&lt;font style=&quot;font-size: 18px;&quot;&gt;Обновление углов суставов&lt;/font&gt;" style="rounded=0;whiteSpace=wrap;html=1;absoluteArcSize=1;arcSize=14;strokeWidth=2;" parent="1" vertex="1">
          <mxGeometry x="220" y="520" width="200" height="80" as="geometry" />
        </mxCell>
        <mxCell id="tjVxPv9A50ptuYDxmKrU-28" value="" style="edgeStyle=orthogonalEdgeStyle;rounded=0;orthogonalLoop=1;jettySize=auto;html=1;endArrow=none;endFill=0;" parent="1" source="tjVxPv9A50ptuYDxmKrU-18" edge="1">
          <mxGeometry relative="1" as="geometry">
            <mxPoint x="320" y="810" as="targetPoint" />
          </mxGeometry>
        </mxCell>
        <mxCell id="tjVxPv9A50ptuYDxmKrU-29" value="&lt;font style=&quot;font-size: 18px;&quot;&gt;да&lt;/font&gt;" style="edgeLabel;html=1;align=center;verticalAlign=middle;resizable=0;points=[];" parent="tjVxPv9A50ptuYDxmKrU-28" vertex="1" connectable="0">
          <mxGeometry x="0.2" y="3" relative="1" as="geometry">
            <mxPoint x="17" y="-8" as="offset" />
          </mxGeometry>
        </mxCell>
        <mxCell id="PeRe5fuBLEYXeTGedXUc-2" style="edgeStyle=orthogonalEdgeStyle;rounded=0;orthogonalLoop=1;jettySize=auto;html=1;exitX=0;exitY=0.5;exitDx=0;exitDy=0;exitPerimeter=0;" edge="1" parent="1" source="tjVxPv9A50ptuYDxmKrU-18">
          <mxGeometry relative="1" as="geometry">
            <mxPoint x="310" y="170" as="targetPoint" />
            <mxPoint x="150" y="680" as="sourcePoint" />
            <Array as="points">
              <mxPoint x="140" y="710" />
              <mxPoint x="140" y="170" />
            </Array>
          </mxGeometry>
        </mxCell>
        <mxCell id="tjVxPv9A50ptuYDxmKrU-18" value="&lt;div&gt;&lt;span style=&quot;font-size: 18px; background-color: initial;&quot;&gt;&amp;nbsp; &amp;nbsp;Манипулятор&amp;nbsp;&lt;/span&gt;&lt;br&gt;&lt;/div&gt;&lt;div&gt;&lt;font style=&quot;font-size: 18px;&quot;&gt;&amp;nbsp; &amp;nbsp; достиг&amp;nbsp;&lt;/font&gt;&lt;span style=&quot;font-size: 18px; background-color: initial;&quot;&gt;конечной&amp;nbsp;&lt;/span&gt;&lt;/div&gt;&lt;div&gt;&lt;span style=&quot;font-size: 18px; background-color: initial;&quot;&gt;точки?&lt;/span&gt;&lt;/div&gt;" style="strokeWidth=2;html=1;shape=mxgraph.flowchart.decision;whiteSpace=wrap;" parent="1" vertex="1">
          <mxGeometry x="220" y="640" width="200" height="140" as="geometry" />
        </mxCell>
        <mxCell id="tjVxPv9A50ptuYDxmKrU-31" value="&lt;span style=&quot;font-size: 18px;&quot;&gt;Конец&lt;/span&gt;" style="rounded=1;whiteSpace=wrap;html=1;absoluteArcSize=1;arcSize=72;strokeWidth=2;" parent="1" vertex="1">
          <mxGeometry x="220" y="810" width="200" height="40" as="geometry" />
        </mxCell>
        <mxCell id="PeRe5fuBLEYXeTGedXUc-4" value="&lt;font style=&quot;font-size: 18px;&quot;&gt;нет&lt;/font&gt;" style="edgeLabel;html=1;align=center;verticalAlign=middle;resizable=0;points=[];" vertex="1" connectable="0" parent="1">
          <mxGeometry x="350" y="820" as="geometry">
            <mxPoint x="-172" y="-126" as="offset" />
          </mxGeometry>
        </mxCell>
      </root>
    </mxGraphModel>
  </diagram>
</mxfile>
